HIERARCHY
ROOT Hips
{
  OFFSET -4.35178 90.3298 111.633
  CHANNELS 6 Xposition Yposition Zposition Zrotation Xrotation Yrotation
  JOINT LeftUpLeg
  {
    OFFSET 0.103456 1.85784 10.5485
    CHANNELS 6 Xposition Yposition Zposition Zrotation Xrotation Yrotation
    JOINT LeftLeg
    {
      OFFSET 43.5 -4.2e-05 0
      CHANNELS 6 Xposition Yposition Zposition Zrotation Xrotation Yrotation
      JOINT LeftFoot
      {
        OFFSET 42.3722 1.9e-05 0
        CHANNELS 6 Xposition Yposition Zposition Zrotation Xrotation Yrotation
        JOINT LeftToe
        {
          OFFSET 17.3 0 0
          CHANNELS 6 Xposition Yposition Zposition Zrotation Xrotation Yrotation
          End Site
          {
            OFFSET 0 0 0
          }
        }
      }
    }
  }
  JOINT RightUpLeg
  {
    OFFSET 0.103456 1.85782 -10.5485
    CHANNELS 6 Xposition Yposition Zposition Zrotation Xrotation Yrotation
    JOINT RightLeg
    {
      OFFSET 43.5 -2.7e-05 0
      CHANNELS 6 Xposition Yposition Zposition Zrotation Xrotation Yrotation
      JOINT RightFoot
      {
        OFFSET 42.3723 0 0
        CHANNELS 6 Xposition Yposition Zposition Zrotation Xrotation Yrotation
        JOINT RightToe
        {
          OFFSET 17.3 0 1.7e-05
          CHANNELS 6 Xposition Yposition Zposition Zrotation Xrotation Yrotation
          End Site
          {
            OFFSET 0 0 0
          }
        }
      }
    }
  }
  JOINT Spine
  {
    OFFSET 6.90197 -2.60373 0
    CHANNELS 6 Xposition Yposition Zposition Zrotation Xrotation Yrotation
    JOINT Spine1
    {
      OFFSET 12.5881 0 0
      CHANNELS 6 Xposition Yposition Zposition Zrotation Xrotation Yrotation
      JOINT Spine2
      {
        OFFSET 12.3432 -1.8e-05 0
        CHANNELS 6 Xposition Yposition Zposition Zrotation Xrotation Yrotation
        JOINT Neck
        {
          OFFSET 25.8329 2.3e-05 0
          CHANNELS 6 Xposition Yposition Zposition Zrotation Xrotation Yrotation
          JOINT Head
          {
            OFFSET 11.7666 0 0
            CHANNELS 6 Xposition Yposition Zposition Zrotation Xrotation Yrotation
            End Site
            {
              OFFSET 0 0 0
            }
          }
        }
        JOINT LeftShoulder
        {
          OFFSET 19.7459 -1.48035 6.0001
          CHANNELS 6 Xposition Yposition Zposition Zrotation Xrotation Yrotation
          JOINT LeftArm
          {
            OFFSET 11.2841 1.8e-05 -2e-05
            CHANNELS 6 Xposition Yposition Zposition Zrotation Xrotation Yrotation
            JOINT LeftForeArm
            {
              OFFSET 33 -1.3e-05 1.9e-05
              CHANNELS 6 Xposition Yposition Zposition Zrotation Xrotation Yrotation
              JOINT LeftHand
              {
                OFFSET 25.2 3.2e-05 1.1e-05
                CHANNELS 6 Xposition Yposition Zposition Zrotation Xrotation Yrotation
                End Site
                {
                  OFFSET 0 0 0
                }
              }
            }
          }
        }
        JOINT RightShoulder
        {
          OFFSET 19.7461 -1.48036 -6.00008
          CHANNELS 6 Xposition Yposition Zposition Zrotation Xrotation Yrotation
          JOINT RightArm
          {
            OFFSET 11.2841 0 0
            CHANNELS 6 Xposition Yposition Zposition Zrotation Xrotation Yrotation
            JOINT RightForeArm
            {
              OFFSET 33.0001 1.6e-05 0
              CHANNELS 6 Xposition Yposition Zposition Zrotation Xrotation Yrotation
              JOINT RightHand
              {
                OFFSET 25.1998 0.000123 0.000432
                CHANNELS 6 Xposition Yposition Zposition Zrotation Xrotation Yrotation
                End Site
                {
                  OFFSET 0 0 0
                }
              }
            }
          }
        }
      }
    }
  }
}
MOTION
Frames:	7
Frame Time:	0.0333333
46.9526 88.0992 -32.46 -78.2096 45.96 174.031 0.103456 1.85784 10.5485 -26.5373 14.7306 -176.497 43.5 -4.2e-05 1e-05 -28.7956 -3.44709 -0.627862 42.3722 1.9e-05 0 57.6689 -3.50729 -2.06643 17.3 0 3e-06 21.4546 -1e-06 0.003093 0.103456 1.85782 -10.5485 14.8586 -15.8471 -170.193 43.5 -2.7e-05 4e-06 -38.4685 15.9744 8.11826 42.3723 -7.10543e-15 1e-05 70.6555 -13.4417 1.1656 17.3 -6e-06 1.7e-05 21.4546 -1.9e-05 -0.003116 6.90197 -2.60373 -3e-06 9.34937 1.93804 -2.06307 12.5881 1e-05 8e-06 8.72302 3.60152 -4.42624 12.3432 -1.8e-05 -5e-06 8.36184 3.4497 -4.62411 25.8329 2.3e-05 7e-06 5.90683 0.520997 -6.0617 11.7666 -8e-06 -6e-06 -15.0508 -5.81616 16.2812 19.7459 -1.48035 6.0001 -174.616 -7.54257 -89.9601 11.2841 1.8e-05 -2e-05 -4.9906 -6.48772 57.5764 33 -1.3e-05 1.9e-05 -76.9024 -7.05612 -3.68568 25.2 3.2e-05 1.1e-05 -35.1897 27.6835 4.0013 19.7461 -1.48036 -6.00008 -175.693 -5.68021 79.1302 11.2841 -3.55271e-15 -1e-06 -39.3219 -13.3362 -49.3567 33.0001 1.6e-05 -1e-06 -121.199 0.627171 24.9966 25.1998 0.000123 0.000432 -5.70035 -9.91248 8.83384 
49.0169 88.4012 -25.9373 -78.2152 41.8286 174.209 0.103456 1.85784 10.5485 -22.4805 21.1467 -179.146 43.5 -4.2e-05 1e-05 -20.1814 -2.95959 -3.86418 42.3722 1.9e-05 7.10543e-15 53.8188 -3.68362 -8.69679 17.3 0 3e-06 21.4546 -1e-06 0.003093 0.103456 1.85782 -10.5485 14.7509 -18.1877 -171.711 43.5 -2.7e-05 4e-06 -44.3177 14.9059 9.94131 42.3723 0 1e-05 65.4439 -20.8512 7.97667 17.3 -6e-06 1.7e-05 21.4546 -1.9e-05 -0.003116 6.90197 -2.60373 -3e-06 9.18667 1.90865 -2.32061 12.5881 1e-05 8e-06 8.40375 3.50064 -4.92975 12.3432 -1.8e-05 -5e-06 8.04302 3.31299 -5.12063 25.8329 2.3e-05 7e-06 5.72281 0.274059 -5.69345 11.7666 -8e-06 -6e-06 -12.9506 -6.53435 16.6948 19.7459 -1.48035 6.0001 -174.656 -8.24465 -89.5659 11.2841 1.8e-05 -2e-05 -3.99731 -7.2297 56.0996 33 -1.3e-05 1.9e-05 -75.1825 -6.4567 -3.69388 25.2 3.2e-05 1.1e-05 -32.715 26.9986 4.36395 19.7461 -1.48036 -6.00008 -176.424 -5.17994 79.4352 11.2841 0 -1e-06 -40.3059 -16.1647 -49.6035 33.0001 1.6e-05 -1e-06 -119.113 2.42341 26.7892 25.1998 0.000123 0.000432 -5.11838 -12.2324 9.73407 
50.8585 87.7327 -19.3038 -77.0983 38.0575 173.617 0.103456 1.85784 10.5485 -19.974 26.2273 179.714 43.5 -4.2e-05 1e-05 -21.7056 -3.90957 -5.75495 42.3722 1.9e-05 1.77636e-15 49.0742 -0.544745 -7.28464 17.3 0 3e-06 21.4546 -1e-06 0.003093 0.103456 1.85782 -10.5485 11.3037 -20.1006 -173.163 43.5 -2.7e-05 4e-06 -55.6903 15.1796 9.01084 42.3723 7.10543e-15 1e-05 67.2182 -30.1263 15.2204 17.3 -6e-06 1.7e-05 21.4546 -1.9e-05 -0.003116 6.90197 -2.60373 -3e-06 9.22769 1.72335 -2.39931 12.5881 1e-05 8e-06 8.48226 3.11695 -5.05484 12.3432 -1.8e-05 -5e-06 8.12582 2.92355 -5.22193 25.8329 2.3e-05 7e-06 5.92116 0.364127 -5.38788 11.7666 -8e-06 -6e-06 -12.6794 -6.89423 16.5098 19.7459 -1.48035 6.0001 -175.16 -8.28245 -89.0339 11.2841 1.8e-05 -2e-05 -4.19257 -8.63661 55.7379 33 -1.3e-05 1.9e-05 -71.6706 -5.17823 -3.69935 25.2 3.2e-05 1.1e-05 -30.2181 26.1158 4.84834 19.7461 -1.48036 -6.00008 -177.001 -4.7173 79.146 11.2841 -5.32907e-15 -1e-06 -39.901 -18.8504 -48.2681 33.0001 1.6e-05 -1e-06 -115.021 4.65006 27.9465 25.1998 0.000123 0.000432 -5.03765 -14.9701 11.0297 
52.7576 85.9829 -13.0291 -74.9827 34.2686 173.231 0.103456 1.85784 10.5485 -17.3492 28.7747 178.84 43.5 -4.2e-05 1e-05 -27.8704 -4.06814 -5.93677 42.3722 1.9e-05 -4.44089e-15 57.595 14.12 -0.225823 17.3 0 3e-06 21.4546 -1e-06 0.003093 0.103456 1.85782 -10.5485 6.66374 -20.9018 -176.83 43.5 -2.7e-05 4e-06 -69.2833 14.9465 8.55679 42.3723 -7.10543e-15 1e-05 73.6213 -31.2451 19.5381 17.3 -6e-06 1.7e-05 21.4546 -1.9e-05 -0.003116 6.90197 -2.60373 -3e-06 9.62289 1.35919 -2.52804 12.5881 1e-05 8e-06 9.26448 2.36025 -5.25387 12.3432 -1.8e-05 -5e-06 8.91692 2.1679 -5.37372 25.8329 2.3e-05 7e-06 5.93032 0.959675 -5.24414 11.7666 -8e-06 -6e-06 -13.734 -7.01936 16.5655 19.7459 -1.48035 6.0001 -176.039 -7.08343 -88.9067 11.2841 1.8e-05 -2e-05 -4.87015 -10.9388 56.359 33 -1.3e-05 1.9e-05 -66.6606 -4.35829 -3.67349 25.2 3.2e-05 1.1e-05 -27.4482 24.3679 5.86196 19.7461 -1.48036 -6.00008 -177.485 -4.18081 78.6106 11.2841 -6.21725e-15 -1e-06 -38.073 -20.6012 -45.2616 33.0001 1.6e-05 -1e-06 -109.135 6.69089 27.5176 25.1998 0.000123 0.000432 -5.11634 -17.7641 12.4079 
54.3644 83.9121 -7.41451 -73.0076 30.7948 173.428 0.103456 1.85784 10.5485 -18.0191 28.9088 177.549 43.5 -4.2e-05 1e-05 -37.4525 -6.00596 -2.4998 42.3722 1.9e-05 1.77636e-15 66.3371 20.6663 6.14299 17.3 0 3e-06 21.4546 -1e-06 0.003093 0.103456 1.85782 -10.5485 0.470914 -20.2859 177.22 43.5 -2.7e-05 4e-06 -82.7248 14.8015 8.68049 42.3723 0 1e-05 77.8253 -30.2987 18.0554 17.3 -6e-06 1.7e-05 21.4546 -1.9e-05 -0.003116 6.90197 -2.60373 -3e-06 10.0698 0.912473 -2.78413 12.5881 1e-05 8e-06 10.1476 1.41219 -5.68608 12.3432 -1.8e-05 -5e-06 9.81163 1.20844 -5.74651 25.8329 2.3e-05 7e-06 5.73002 2.19725 -5.37373 11.7666 -8e-06 -6e-06 -13.7858 -6.78821 17.409 19.7459 -1.48035 6.0001 -177.576 -4.83161 -88.6225 11.2841 1.8e-05 -2e-05 -6.94362 -13.2239 56.4126 33 -1.3e-05 1.9e-05 -60.2393 -2.5079 -3.89458 25.2 3.2e-05 1.1e-05 -25.867 23.519 6.40423 19.7461 -1.48036 -6.00008 -178.391 -3.36498 77.3705 11.2841 -7.54952e-15 -1e-06 -35.4833 -20.8229 -41.3751 33.0001 1.6e-05 -1e-06 -100.932 8.87432 24.9435 25.1998 0.000123 0.000432 -3.63629 -18.289 11.9567 
55.2346 82.6045 -2.3613 -72.4087 28.3517 174.091 0.103456 1.85784 10.5485 -21.4839 24.1083 175.389 43.5 -4.2e-05 1e-05 -46.6552 -6.71779 5.06275 42.3722 1.9e-05 -1.33227e-15 70.1155 15.8821 7.5361 17.3 -7.10543e-15 3e-06 21.4546 -1e-06 0.003093 0.103456 1.85782 -10.5485 -7.92059 -17.2943 170.807 43.5 -2.7e-05 4e-06 -92.4999 13.0825 8.03347 42.3723 -7.10543e-15 1e-05 78.2113 -28.0486 12.0173 17.3 -6e-06 1.7e-05 21.4546 -1.9e-05 -0.003116 6.90197 -2.60373 -3e-06 10.4277 0.679424 -3.14988 12.5881 1e-05 8e-06 10.8568 0.867412 -6.37119 12.3432 -1.8e-05 -5e-06 10.5265 0.633129 -6.39664 25.8329 2.3e-05 7e-06 5.47451 3.65728 -5.83362 11.7666 -8e-06 -6e-06 -12.8776 -6.64599 18.8958 19.7459 -1.48035 6.0001 179.543 -1.36482 -88.1681 11.2841 1.8e-05 -2e-05 -11.2248 -15.8323 55.3207 33 -1.3e-05 1.9e-05 -50.0932 1.42281 -4.66567 25.2 3.2e-05 1.1e-05 -24.0501 24.9715 5.75581 19.7461 -1.48036 -6.00008 -179.439 -2.37596 75.5238 11.2841 5.32907e-15 -1e-06 -33.3658 -18.8574 -38.8041 33.0001 1.6e-05 -1e-06 -90.6202 10.003 20.9309 25.1998 0.000123 0.000432 -1.82068 -17.6936 11.0984 
55.3806 81.3886 2.58064 -73.5897 25.8894 175.176 0.103456 1.85784 10.5485 -26.4017 20.938 175.516 43.5 -4.2e-05 1e-05 -54.72 -6.73209 9.66116 42.3722 1.9e-05 0 70.7905 11.8743 6.67691 17.3 0 3e-06 21.4546 -1e-06 0.003093 0.103456 1.85782 -10.5485 -17.3429 -13.4822 165.514 43.5 -2.7e-05 4e-06 -97.6643 10.5178 6.14869 42.3723 3.55271e-15 1e-05 77.4257 -19.4485 3.75606 17.3 -6e-06 1.7e-05 21.4546 -1.9e-05 -0.003116 6.90197 -2.60373 -3e-06 10.5207 0.669163 -3.30415 12.5881 1e-05 8e-06 11.042 0.813502 -6.67646 12.3432 -1.8e-05 -5e-06 10.7115 0.563248 -6.698 25.8329 2.3e-05 7e-06 6.20088 4.28862 -6.15084 11.7666 -8e-06 -6e-06 -13.8411 -7.7107 19.6806 19.7459 -1.48035 6.0001 176.847 3.02243 -89.1881 11.2841 1.8e-05 -2e-05 -15.337 -19.6453 56.3388 33 -1.3e-05 1.9e-05 -38.6959 6.62446 -6.01379 25.2 3.2e-05 1.1e-05 -20.632 26.9289 5.18856 19.7461 -1.48036 -6.00008 -178.597 -1.31069 75.3076 11.2841 -5.32907e-15 -1e-06 -30.7625 -16.198 -39.0651 33.0001 1.6e-05 -1e-06 -84.9653 9.24818 19.1352 25.1998 0.000123 0.000432 -1.50034 -17.7134 11.5525 
